# xmcd
#
# Track frame offsets: 
#        150
#        23700
#        44145
#        59812
#        78525
#        100525
#
# Disc length: 1562 seconds
#
# Revision: 2
# Processed by: cddbd v1.4PL0 Copyright (c) Steve Scherf et al.
# Submitted via: ExactAudioCopy v0.95a2
#
DISCID=4c061806
DTITLE=Various Artist - Kellogg's Driving 'Em Crazy - Volume 2
DYEAR=2001
DGENRE=Country
TTITLE0=Martina McBride - Love's The Only House
TTITLE1=Sara Evans - Four-Thirty
TTITLE2=Pam Tillis - Space
TTITLE3=Kathy Mattea - 455 Rocket
TTITLE4=Carolyn Dawn Johnson - Georgia
TTITLE5=3 oF Hearts - The Hard Way
EXTD=
EXTT0=
EXTT1=
EXTT2=
EXTT3=
EXTT4=
EXTT5=
PLAYORDER=
